<svg width="16" height="18" viewBox="0 0 16 18" fill="none" xmlns="http://www.w3.org/2000/svg">
<path d="M0.400024 17.4001L6.90402 0.600098H9.54402L16 17.4001H13.24L9.40002 7.2721C9.35202 7.1601 9.25602 6.8881 9.11202 6.4561C8.98402 6.0241 8.83203 5.5441 8.65602 5.0161C8.48002 4.4881 8.32002 4.0081 8.17602 3.5761C8.03202 3.1281 7.93602 2.8401 7.88802 2.7121L8.44002 2.6881C8.34402 2.9601 8.22402 3.3041 8.08003 3.7201C7.95202 4.1361 7.80802 4.5761 7.64803 5.0401C7.50402 5.5041 7.36002 5.9441 7.21602 6.3601C7.07202 6.7601 6.95202 7.0961 6.85602 7.3681L3.04002 17.4001H0.400024ZM3.28002 13.2241L4.24002 10.7281H11.872L12.976 13.2241H3.28002Z" fill="white"/>
</svg>
