<svg width="13" height="14" viewBox="0 0 13 14" fill="none" xmlns="http://www.w3.org/2000/svg">
<path d="M0.700012 13.4003L5.57801 0.800293H7.55801L12.4 13.4003H10.33L7.45001 5.80429C7.41401 5.72029 7.34201 5.51629 7.23401 5.19229C7.13801 4.86829 7.02401 4.50829 6.89201 4.11229C6.76001 3.71629 6.64001 3.35629 6.53201 3.03229C6.42401 2.69629 6.35201 2.48029 6.31601 2.38429L6.73001 2.36629C6.65801 2.57029 6.56801 2.82829 6.46001 3.14029C6.36401 3.45229 6.25601 3.78229 6.13601 4.13029C6.02801 4.47829 5.92001 4.80829 5.81201 5.12029C5.70401 5.42029 5.61401 5.67229 5.54201 5.87629L2.68001 13.4003H0.700012ZM2.86001 10.2683L3.58001 8.39629H9.30401L10.132 10.2683H2.86001Z" fill="white"/>
</svg>
