<svg width="36" height="18" viewBox="0 0 36 18" fill="none" xmlns="http://www.w3.org/2000/svg">
<path d="M0.700012 17.4003L5.57801 4.80029H7.55801L12.4 17.4003H10.33L7.45001 9.80429C7.41401 9.72029 7.34201 9.51629 7.23401 9.19229C7.13801 8.86829 7.02401 8.50829 6.89201 8.11229C6.76001 7.71629 6.64001 7.35629 6.53201 7.03229C6.42401 6.69629 6.35201 6.48029 6.31601 6.38429L6.73001 6.36629C6.65801 6.57029 6.56801 6.82829 6.46001 7.14029C6.36401 7.45229 6.25601 7.78229 6.13601 8.13029C6.02801 8.47829 5.92001 8.80829 5.81201 9.12029C5.70401 9.42029 5.61401 9.67229 5.54201 9.87629L2.68001 17.4003H0.700012ZM2.86001 14.2683L3.58001 12.3963H9.30401L10.132 14.2683H2.86001Z" fill="white"/>
<path d="M20.4 17.4001L26.904 0.600098H29.544L36 17.4001H33.24L29.4 7.2721C29.352 7.1601 29.256 6.8881 29.112 6.4561C28.984 6.0241 28.832 5.5441 28.656 5.0161C28.48 4.4881 28.32 4.0081 28.176 3.5761C28.032 3.1281 27.936 2.8401 27.888 2.7121L28.44 2.6881C28.344 2.9601 28.224 3.3041 28.08 3.7201C27.952 4.1361 27.808 4.5761 27.648 5.0401C27.504 5.5041 27.36 5.9441 27.216 6.3601C27.072 6.7601 26.952 7.0961 26.856 7.3681L23.04 17.4001H20.4ZM23.28 13.2241L24.24 10.7281H31.872L32.976 13.2241H23.28Z" fill="white"/>
</svg>
