<svg width="48" height="48" viewBox="0 0 48 48" fill="none" xmlns="http://www.w3.org/2000/svg">
<g id="whatsapp-icon-seeklogo.com 2" clip-path="url(#clip0_150_1044)">
<path id="Vector" d="M41.0057 6.97539C36.4934 2.47986 30.4934 0.00274282 24.1008 0C10.9279 0 0.207865 10.6695 0.202592 23.7838C0.201057 27.9759 1.30122 32.0679 3.39234 35.675L0.00195312 48L12.6707 44.6927C16.1611 46.5879 20.0912 47.5866 24.0905 47.5882H24.1007H24.1008C37.2716 47.5882 47.9933 36.9168 47.9988 23.8031C48.001 17.4473 45.5174 11.4712 41.0057 6.97539ZM24.1008 43.571H24.0931C20.5282 43.5691 17.0325 42.6163 13.9833 40.8149L13.2576 40.3866L5.73975 42.349L7.74692 35.0541L7.27414 34.3062C5.28566 31.1584 4.23591 27.5206 4.2374 23.7854C4.24177 12.8851 13.1519 4.01733 24.1083 4.01733C29.414 4.01953 34.4008 6.07852 38.1512 9.81507C41.9014 13.5516 43.9653 18.5187 43.9637 23.8014C43.959 34.702 35.0486 43.571 24.1008 43.571Z" fill="#E0E0E0"/>
<path id="Vector_2" d="M1.09863 46.6325L4.33416 34.8705C2.33804 31.4282 1.28833 27.5228 1.28959 23.523C1.29482 11.008 11.5253 0.826172 24.0954 0.826172C30.1962 0.828915 35.9222 3.19276 40.2274 7.48304C44.5336 11.7733 46.9036 17.476 46.9011 23.5408C46.8959 36.0561 36.6647 46.2388 24.0963 46.2388C24.0954 46.2388 24.0969 46.2388 24.0963 46.2388H24.0861C20.2695 46.2376 16.5192 45.2837 13.1884 43.4764L1.09863 46.6325Z" fill="url(#paint0_linear_150_1044)"/>
<path id="Vector_3" fill-rule="evenodd" clip-rule="evenodd" d="M18.1953 13.6864C17.7532 12.7077 17.2877 12.6882 16.867 12.671C16.523 12.6563 16.1291 12.6572 15.7358 12.6572C15.3423 12.6572 14.7027 12.8045 14.1619 13.3925C13.6208 13.9806 12.0957 15.4022 12.0957 18.2935C12.0957 21.1851 14.2111 23.9791 14.506 24.3715C14.8011 24.7633 18.5895 30.8863 24.5892 33.2419C29.5754 35.1995 30.5901 34.8101 31.6724 34.7121C32.7547 34.6142 35.1647 33.2909 35.6566 31.9185C36.1486 30.5465 36.1486 29.3704 36.001 29.1245C35.8534 28.8797 35.4598 28.7327 34.8695 28.4388C34.2791 28.145 31.3772 26.7231 30.8361 26.5271C30.2949 26.3312 29.9014 26.2333 29.5078 26.8216C29.1142 27.4094 27.9837 28.7327 27.6393 29.1245C27.2949 29.5173 26.9506 29.5663 26.3602 29.2724C25.7699 28.9776 23.8688 28.3577 21.6135 26.3557C19.8587 24.7981 18.674 22.8745 18.3297 22.2861C17.9853 21.6984 18.2928 21.38 18.5889 21.0871C18.8539 20.8238 19.1792 20.401 19.4744 20.0579C19.7689 19.7147 19.8673 19.4698 20.0641 19.078C20.2609 18.6855 20.1625 18.3424 20.0149 18.0485C19.8673 17.7547 18.7202 14.8484 18.1953 13.6864Z" fill="white"/>
<path id="Vector_4" d="M40.8103 6.89973C36.3499 2.45581 30.4187 0.00717654 24.0996 0.00439453C11.0779 0.00439453 0.480895 10.5514 0.47566 23.5152C0.474125 27.6592 1.56166 31.7042 3.62877 35.2699L0.277344 47.4534L12.8006 44.184C16.2511 46.0574 20.136 47.0447 24.0895 47.0462H24.0995H24.0996C37.1192 47.0462 47.7177 36.4974 47.7233 23.5342C47.7254 17.2514 45.2702 11.344 40.8103 6.89973ZM24.0996 43.0753H24.0919C20.568 43.0734 17.1123 42.1315 14.0982 40.3508L13.3808 39.9275L5.94926 41.8673L7.93337 34.6561L7.46601 33.9168C5.50036 30.8051 4.46265 27.2091 4.46419 23.5168C4.46848 12.7417 13.2763 3.97569 24.107 3.97569C29.3519 3.97784 34.2813 6.01321 37.9887 9.70685C41.6959 13.4005 43.736 18.3106 43.7345 23.5327C43.7298 34.308 34.9217 43.0753 24.0996 43.0753Z" fill="white"/>
</g>
<defs>
<linearGradient id="paint0_linear_150_1044" x1="23.9999" y1="46.6325" x2="23.9999" y2="0.826248" gradientUnits="userSpaceOnUse">
<stop stop-color="#20B038"/>
<stop offset="1" stop-color="#60D66A"/>
</linearGradient>
<clipPath id="clip0_150_1044">
<rect width="48" height="48" fill="white"/>
</clipPath>
</defs>
</svg>
